<svg xmlns="http://www.w3.org/2000/svg" version="1.1" xmlns:xlink="http://www.w3.org/1999/xlink" viewBox="0 0 1422 800" style="overflow: hidden; display: block;" width="1422" height="800"><defs></defs><g id="two-0" transform="matrix(1 0 0 1 0 0)" opacity="1"></g><path d="M 380.8764385403616 578.4993791946865 Q 380.8764385403616 578.4993791946865 388.8797632867056 573.3625637074877 396.88308803304955 568.2257482202887 402.2346355989009 564.7975553415687 407.58618316475236 561.3693624628487 418.5756279437631 556.0706922679938 429.56507272277383 550.7720220731388 436.72276222200156 547.2297744429546 443.8804517212293 543.6875268127704 455.4800960188742 539.0647086430023 467.07974031651906 534.4418904732341 476.49632374121586 530.6654119717974 485.9129071659127 526.8889334703607 503.44627756822297 521.9703971155388 520.9796479705333 517.0518607607171 532.075918912084 513.7124824953212 543.1721898536348 510.3731042299252 561.6997385292302 506.45793008340127 580.2272872048258 502.54275593687726 592.5628951509943 500.3018815970448 604.898503097163 498.0610072572124 623.0230774094618 495.2265623579257 641.1476517217606 492.3921174586389 652.7271607906375 490.7747624339977 664.3066698595146 489.15740740935655 684.5493671863221 488.23520607910723 704.7920645131297 487.31300474885785 715.5414183029278 486.73971835274585 726.2907720927259 486.1664319566338 741.0986274531806 487.0591667927846 755.9064828136353 487.95190162893545 765.1588591800585 488.6576100270504 774.4112355464817 489.3633184251653 786.771469061584 491.5379021372904 799.1317025766862 493.71248584941554 811.0380272753115 496.93049206339015 822.9443519739368 500.1484982773647 833.4842054520893 503.3305894733826 844.0240589302417 506.5126806694004 851.7220458957929 509.3030491119406 859.420032861344 512.0934175544808 866.8805041576329 515.0852121547102 874.3409754539218 518.0770067549397 880.6100310973137 520.8736997665243 886.8790867407056 523.6703927781089 895.736469301597 528.9835156856792 904.5938518624883 534.2966385932496 910.12747420451 537.889723662375 915.6610965465316 541.4828087315005 921.6008131397257 546.8207089150667 927.5405297329197 552.1586090986327 931.9800816875379 557.3935521249447 936.4196336421561 562.6284951512566 937.3648501142607 564.3255890633329 938.3100665863653 566.0226829754092 938.663899531382 567.9327521292792 939.0177324763986 569.842821283149 938.7431354915811 571.765880934193 938.4685385067636 573.688940585237 937.594261968909 575.4236458803524 936.7199854310544 577.1583511754678 935.3375663244626 578.5230780123383 933.955147217871 579.8878048492087 932.2093251879253 580.739665967761 930.4635031579797 581.5915270863132 928.5370662320679 581.8413324025654 926.6106293061562 582.0911377188175 924.705275938951 581.7127325502158 922.7999225717459 581.3343273816141 921.1151437637584 580.3673308492004 919.4303649557708 579.4003343167866 918.1425574929353 577.9459912127668 916.8547500300999 576.4916481087471 916.0987476937238 574.7022285400215 915.3427453573477 572.9128089712959 915.1977017916146 570.9756656390709 915.0526582258815 569.038522306846 915.5337595304115 567.1564746293617 916.0148608349415 565.2744269518774 917.0717355761519 563.6445258177789 918.1286103173622 562.0146246836803 919.6506034308604 560.8075211719596 921.1725965443587 559.6004176602389 923.0003549493943 558.9424958272177 924.8281133544299 558.2845739941965 926.7702702635144 558.2447184294666 928.7124271725988 558.2048628647367 930.5656382446713 558.787246456446 932.4188493167437 559.3696300481554 933.989082863358 560.5132770805178 935.5593164099723 561.6569241128803 936.6821685642966 563.2420944397139 937.8050207186209 564.8272647665475 938.362928563693 566.6879906361885 938.9208364087652 568.5487165058295 938.855386845933 570.4901794285424 938.7899372831008 572.4316423512555 938.1079828988697 574.2505706465361 937.4260285146386 576.0694989418167 936.198970113056 577.5754503369985 934.9719117114736 579.0814017321803 933.3282226310972 580.1167027186552 931.6845335507209 581.1520037051303 929.796308472158 581.6082579963215 927.9080833935951 582.0645122875127 925.9730199810142 581.8939499386931 924.0379565684332 581.7233875898735 922.2586564719385 580.9438665239885 920.4793563754438 580.1643454581035 919.0421127848281 578.857481736525 917.6048691942124 577.5506180149463 917.6059883534356 577.5520291222904 917.6071075126587 577.5534402296346 914.3881496158643 572.9890637259605 911.16919171907 568.4246872222864 907.0348209532654 563.5294501513426 902.9004501874606 558.634213080399 897.9821680631483 554.5415997547532 893.063885938836 550.4489864291074 886.0067068541643 545.0515944365194 878.9495277694925 539.6542024439314 873.2774580378897 536.5368219453335 867.6053883062868 533.4194414467356 860.5388033433971 530.0344688435489 853.4722183805075 526.6494962403622 846.5896152796547 523.4821794432464 839.7070121788021 520.3148626461307 829.509304241519 517.017653381653 819.311596304236 513.7204441171754 808.0553045003201 510.73946908046656 796.7990126964041 507.75849404375776 784.8138541823193 505.90144412318574 772.8286956682346 504.0443942026137 763.9991516523337 502.8026469857657 755.1696076364327 501.56089976891764 741.0014773086981 500.88689082411247 726.8333469809635 500.21288187930736 716.1440483530091 500.4763346825315 705.4547497250547 500.7397874857556 685.8077223258088 501.78638427159115 666.1606949265627 502.83298105742676 654.7460382510028 504.3403604701041 643.3313815754431 505.84773988278135 625.4449822611259 508.85787958842127 607.5585829468089 511.86801929406124 595.4722524309952 514.3326358444976 583.3859219151815 516.7972523949339 565.5585777597341 520.9383167947915 547.7312336042867 525.0793811946489 536.6118078627309 528.633922010123 525.4923821211751 532.1884628255971 508.84647080588184 537.4599030937322 492.20055949058855 542.7313433618673 483.01284077529 546.3461076784636 473.8251220599914 549.9608719950598 462.75838828983916 555.1905135177681 451.69165451968695 560.4201550404763 444.71804472221373 563.4749101678652 437.7444349247405 566.5296652952542 422.2441034690388 575.0817726854319 406.74377201333715 583.6338800756097 398.72730687320654 588.749745557649 390.7108417330759 593.8656110396885 389.72002104899013 594.3423753210601 388.72920036490444 594.8191396024317 387.65307223162426 595.0449227921666 386.57694409834414 595.2707059819015 385.47805313353746 595.2323855504039 384.3791621687308 595.1940651189065 383.3213759669033 594.8938682514556 382.26358976507584 594.5936713840047 381.3083869099777 594.0490455366414 380.35318405487953 593.504419689278 379.55608098132893 592.7470185418401 378.7589779077784 591.9896173944023 378.1663022838619 591.0634611371654 377.5736266599455 590.1373048799285 377.2198248207719 589.0962217580784 376.86602298159835 588.0551386362282 376.7716579066837 586.9596364497218 376.6772928317691 585.8641342632154 376.84784902370114 584.7778836506045 377.0184052156332 583.6916330379936 377.44396994052335 582.6777669359204 377.8695346654135 581.6639008338473 378.525374081456 580.7813451878005 379.18121349749856 579.8987895417539 380.0292101870186 579.1988385273486 380.8772068765386 578.4988875129433 380.8768227084501 578.4991333538148 Z" fill="hsl(205, 69%, 50%)"></path><path d="M 512.0038499833832 337.8057535521692 Q 512.0038499833832 337.8057535521692 512.4107047189314 339.71371888108285 512.8175594544795 341.62168420999654 501.07805009294435 347.07494135857655 489.33854073140924 352.52819850715656 488.1624968204312 350.79793591163826 486.98645290945313 349.06767331611996 486.4244675089923 347.0524660464657 485.8624821085315 345.03725877681154 485.9733952383658 342.9480995661173 486.0843083682002 340.85894035542304 486.8565073943579 338.91456472453285 487.6287064205155 336.9701890936427 488.98134190111705 335.3741736843762 490.3339773817186 333.7781582751097 492.12542802488394 332.6976063221242 493.91687866804926 331.61705436913866 495.9595791185419 331.1650999471497 498.0022795690346 330.71314552516077 500.08235855046746 330.937108381455 502.16243753190037 331.1610712377493 504.0621102258299 332.0375024021523 505.9617829197594 332.91393356655533 507.4821530936663 334.35107046479874 509.00252326757317 335.78820736304215 509.98440776291056 337.63558138251256 510.966292258248 339.48295540198296 511.3068875091618 341.5471459951824 511.64748276007566 343.6113365883819 511.3111283538868 345.67622245530913 510.9747739476979 347.7411083222363 509.9966862795232 349.59049536754696 509.0185986113485 351.4398824128576 507.501183718236 352.880139324717 505.9837688251235 354.32039623657636 504.0859004469407 355.20072773612185 502.1880320687579 356.0810592356673 500.10841752568905 356.30929438251155 498.0288029826202 356.53752952935577 495.98517846628965 356.08977204337594 493.94155394995914 355.6420145573961 492.1478874866911 354.56514476557084 490.35422102342307 353.4882749737455 488.9983099654037 351.8950414275448 487.64239890738435 350.3018078813442 486.86620750031403 348.3590225536282 486.0900160932437 346.41623722591225 485.9748117823373 344.32731025333834 485.85960747143093 342.2383832807644 486.4174521784514 340.22202586878416 486.97529688547183 338.20566845680395 488.1477841223374 336.4729937587184 489.3202713592029 334.74031906063294 490.9846414027071 333.4727385747134 492.6490114462113 332.2051580887938 494.63100431344833 331.5353878265247 496.6129971806853 330.8656175642556 498.70509769526 330.8637826488988 500.79719820983473 330.86194773354197 502.7803628956104 331.5282402812196 504.76352758138603 332.1945328288972 506.4301185722572 333.45919183398325 508.09670956312834 334.72385083906937 508.09537423704325 334.72244397639645 508.09403891095815 334.7210371137235 497.7435032475265 340.2900573112385 487.39296758409483 345.8590775087535 487.15903633941826 343.92229186110467 486.9251050947417 341.9855062134558 486.85722444806504 340.45465933580977 486.7893438013884 338.92381245816375 487.08980283889787 337.4212066177083 487.39026187640735 335.91860077725295 488.0415979047259 334.53156749603505 488.6929339330444 333.14453421481716 489.6572912716032 331.9536879323107 490.621648610162 330.76284164980416 491.8429787651339 329.8373944079 493.0643089201059 328.9119471659958 494.47162812550005 328.3056860018754 495.87894733089416 327.699424837755 497.39046212837036 327.44758567876204 498.90197692584655 327.1957465197691 500.4298380043573 327.31296626965695 501.95769908286803 327.4301860195448 503.41310708474407 327.9096518609424 504.86851508662005 328.38911770233995 506.1668816304102 329.20296305801764 507.4652481742004 330.01680841369534 508.53111213537613 331.1177325533428 509.59697609655194 332.2186566929903 510.36838941161034 333.5426738538845 511.1398027266688 334.8666910147787 511.571930817494 336.33684925731984 512.0040589083192 337.80700749986096 512.0039544458512 337.8063805260151 Z" fill="hsl(205, 69%, 50%)"></path><path d="M 792.4140175059191 328.869862506664 Q 792.4140175059191 328.869862506664 791.8673803226309 331.13953618118813 791.3207431393425 333.4092098557123 790.4374153135401 335.2815963794648 789.5540874877377 337.15398290321735 788.1191277526127 338.64629315940977 786.6841680174879 340.13860341560223 784.8478170361007 341.0945921264796 783.0114660547133 342.0505808373569 780.9659902595645 342.3701557325338 778.9205144644156 342.6897306277107 776.8800757112106 342.3394321313025 774.8396369580055 341.98913363489424 773.0178697228282 341.0056380919448 771.1961024876509 340.02214254899525 769.7837462809243 338.50842220246886 768.3713900741978 336.9947018559424 767.5163189635921 335.1092436257038 766.6612478529864 333.22378539546526 766.4529880094988 331.16399725593305 766.2447281660112 329.10420911640085 766.7050844502301 327.0857514295153 767.1654407344489 325.06729374262983 768.2462137218943 323.301499561029 769.3269867093397 321.53570537942824 770.9150191829299 320.2074538200501 772.5030516565199 318.879202260672 774.4320761970698 318.1275616124078 776.3611007376198 317.37592096414363 778.4291479665211 317.2795882012805 780.4971951954224 317.18325543841735 782.4877400218975 317.75231662665647 784.4782848483726 318.3213778148955 786.1829167036369 319.49625209761064 787.8875485589011 320.6711263803257 789.1277920377293 322.32880410997984 790.3680355165574 323.98648183963394 791.0140367993235 325.9534037203479 791.6600380820897 327.9203256010619 791.6441606639605 329.990554392708 791.6282832458314 332.06078318435414 790.9521894966763 334.0175653859597 790.2760957475213 335.97434758756526 789.0105728613481 337.6128075860819 787.745049975175 339.25126758459845 786.0225985322318 340.3998581856699 784.3001470892885 341.54844878674146 782.3011082103344 342.0869122512372 780.3020693313803 342.62537571573296 778.2357429147366 342.49733477677967 776.1694164980931 342.3692938378264 774.25214746504 341.588154415532 772.3348784319868 340.8070149932377 770.7674053563946 339.4545625913173 769.1999322808024 338.10211018939685 768.1463700074582 336.3199469313442 767.0928077341141 334.53778367329153 766.6634645111507 332.5125025226701 766.2341212881872 330.4872213720487 766.4739494643843 328.4308697999509 766.7137776405815 326.3745182278532 766.7132500387054 326.37636375027944 766.7127224368294 326.37820927270565 767.4476923092052 324.1623459904427 768.1826621815809 321.94648270817976 768.7729343565161 320.54700013442744 769.3632065314514 319.14751756067506 770.2712539373346 317.929969769659 771.1793013432177 316.71242197864296 772.3523482221544 315.74757290518323 773.5253951010912 314.78272383172356 774.8952639133624 314.1266505493029 776.2651327256335 313.4705772668823 777.7522066315069 313.1614107855005 779.2392805373801 312.8522443041187 780.7571307315764 312.9079533941998 782.2749809257726 312.96366248428086 783.7353898836893 313.38100933089186 785.1957988416059 313.7983561775028 786.5138875259918 314.55308456230966 787.8319762103777 315.30781294711653 788.9311372449661 316.3560580209335 790.0302982795546 317.4043030947505 790.8466483733715 318.68514080463586 791.6629984671885 319.9659785145212 792.1490913144253 321.40496651259645 792.635184161662 322.84395451067167 792.7627680231981 324.3574587468781 792.8903518847343 325.8709629830845 792.6520115805429 327.3710185201021 792.4136712763514 328.87107405711976 792.4138443911352 328.8704682818919 Z" fill="hsl(205, 69%, 50%)"></path></svg>